<?xml version="1.0" encoding="utf-8"?>
<!-- Generator: Adobe Illustrator 26.3.1, SVG Export Plug-In . SVG Version: 6.00 Build 0)  -->
<svg version="1.1" id="Слой_1" xmlns="http://www.w3.org/2000/svg" xmlns:xlink="http://www.w3.org/1999/xlink" x="0px" y="0px"
	 viewBox="0 0 100 100" style="enable-background:new 0 0 100 100;" xml:space="preserve">
<style type="text/css">
	.st0{fill:none;stroke:#0C3148;stroke-linecap:round;stroke-linejoin:round;stroke-miterlimit:10;}
	.st1{fill:none;stroke:#669BBC;stroke-linecap:round;stroke-linejoin:round;stroke-dasharray:2.0008,2.0008;}
	.st2{fill:none;stroke:#669BBC;stroke-linecap:round;stroke-linejoin:round;stroke-dasharray:1.984,1.984;}
	.st3{fill:#76160E;}
	.st4{fill:#C11720;}
	.st5{fill:none;stroke:#C11720;stroke-miterlimit:10;}
</style>
<circle class="st0" cx="50" cy="50" r="47.9"/>
<g>
	<path class="st1" d="M93.3,50c0,23.9-19.4,43.3-43.3,43.3C-7.5,91-7.4,9,50,6.7C73.9,6.7,93.3,26.1,93.3,50L93.3,50z"/>
</g>
<g>
	<path class="st2" d="M80.3,50c0,16.7-13.6,30.3-30.3,30.3C9.8,78.7,9.8,21.3,50,19.7C66.7,19.7,80.3,33.3,80.3,50L80.3,50z"/>
</g>
<g>
	<circle class="st3" cx="84.8" cy="18" r="9.9"/>
	<circle class="st4" cx="84.5" cy="17.2" r="9.9"/>
</g>
<g>
	<circle class="st3" cx="19.2" cy="45.3" r="7.2"/>
	<circle class="st4" cx="19" cy="44.6" r="7.2"/>
</g>
<line class="st5" x1="22.8" y1="43.9" x2="84.5" y2="17.2"/>
<g>
	<g>
		<g>
			<g>
				<path class="st3" d="M44,57.2c-1.1,0-2-0.2-2.6-0.7s-1.1-1.1-1.4-2c-0.3-0.9-0.4-1.9-0.4-3.1v-5.6c0-1.2,0.1-2.3,0.4-3.1
					c0.3-0.9,0.7-1.5,1.4-2C42,40.2,43,40,44.2,40c1.1,0,2,0.2,2.6,0.5c0.7,0.4,1.1,0.9,1.4,1.6c0.3,0.7,0.5,1.6,0.5,2.7v0.6h-2.3
					V45c0-0.7-0.1-1.3-0.2-1.8c-0.1-0.5-0.3-0.8-0.6-1s-0.8-0.3-1.4-0.3c-0.7,0-1.2,0.2-1.6,0.5c-0.3,0.3-0.5,0.8-0.6,1.3
					C42,44.2,42,44.8,42,45.5v6.2c0,0.8,0.1,1.5,0.2,2c0.1,0.5,0.4,0.9,0.7,1.2c0.3,0.3,0.8,0.4,1.5,0.4s1.1-0.1,1.5-0.4
					c0.3-0.3,0.6-0.7,0.7-1.3c0.1-0.6,0.2-1.3,0.2-2.1v-1.2h-2.2v-1.7h4.4V57h-1.5L47.1,55c-0.2,0.6-0.6,1.1-1.1,1.5
					C45.5,57,44.9,57.2,44,57.2z"/>
				<path class="st3" d="M55.5,57.2c-1.1,0-2-0.2-2.6-0.7c-0.7-0.4-1.1-1.1-1.4-2c-0.3-0.9-0.4-1.9-0.4-3.1v-5.6
					c0-1.2,0.1-2.3,0.4-3.1c0.3-0.9,0.7-1.5,1.4-2c0.7-0.5,1.6-0.7,2.8-0.7c1.1,0,2,0.2,2.6,0.5c0.7,0.4,1.1,0.9,1.4,1.6
					c0.3,0.7,0.5,1.6,0.5,2.7v0.6h-2.3V45c0-0.7,0-1.3-0.2-1.8c-0.1-0.5-0.3-0.8-0.6-1c-0.3-0.2-0.8-0.3-1.4-0.3
					c-0.7,0-1.2,0.2-1.6,0.5c-0.3,0.3-0.5,0.8-0.6,1.3c-0.1,0.5-0.1,1.2-0.1,1.9v6.2c0,0.8,0.1,1.5,0.2,2s0.4,0.9,0.7,1.2
					s0.8,0.4,1.5,0.4s1.1-0.1,1.5-0.4c0.3-0.3,0.6-0.7,0.7-1.3c0.1-0.6,0.2-1.3,0.2-2.1v-1.2h-2.2v-1.7h4.4V57h-1.5L58.6,55
					c-0.2,0.6-0.6,1.1-1.1,1.5C57,57,56.3,57.2,55.5,57.2z"/>
			</g>
		</g>
	</g>
	<g>
		<g>
			<path class="st4" d="M43.9,56.3c-1.1,0-1.9-0.2-2.6-0.7c-0.6-0.5-1.1-1.1-1.4-2c-0.3-0.9-0.4-1.9-0.4-3.1v-5.7
				c0-1.2,0.1-2.3,0.4-3.2c0.3-0.9,0.7-1.5,1.4-2c0.7-0.5,1.6-0.7,2.8-0.7c1.1,0,1.9,0.2,2.6,0.5c0.7,0.4,1.1,0.9,1.4,1.6
				s0.4,1.7,0.4,2.8v0.6h-2.2V44c0-0.7,0-1.3-0.1-1.8c-0.1-0.5-0.3-0.8-0.6-1c-0.3-0.2-0.8-0.3-1.4-0.3c-0.7,0-1.2,0.2-1.5,0.5
				c-0.3,0.3-0.5,0.8-0.6,1.3c-0.1,0.6-0.1,1.2-0.1,1.9v6.3c0,0.8,0.1,1.5,0.2,2c0.1,0.5,0.3,1,0.7,1.2c0.3,0.3,0.8,0.4,1.4,0.4
				s1.1-0.1,1.4-0.4s0.6-0.7,0.7-1.3s0.2-1.3,0.2-2.1v-1.2h-2.2v-1.7h4.3v8.4h-1.5l-0.2-2c-0.2,0.6-0.6,1.1-1,1.6
				C45.4,56.1,44.7,56.3,43.9,56.3z"/>
			<path class="st4" d="M55.1,56.3c-1.1,0-1.9-0.2-2.6-0.7s-1.1-1.1-1.4-2c-0.3-0.9-0.4-1.9-0.4-3.1v-5.7c0-1.2,0.1-2.3,0.4-3.2
				c0.3-0.9,0.7-1.5,1.4-2s1.6-0.7,2.8-0.7c1.1,0,1.9,0.2,2.6,0.5c0.7,0.4,1.1,0.9,1.4,1.6s0.4,1.7,0.4,2.8v0.6h-2.2V44
				c0-0.7,0-1.3-0.1-1.8c-0.1-0.5-0.3-0.8-0.6-1c-0.3-0.2-0.8-0.3-1.4-0.3c-0.7,0-1.2,0.2-1.5,0.5c-0.3,0.3-0.5,0.8-0.6,1.3
				c-0.1,0.6-0.1,1.2-0.1,1.9v6.3c0,0.8,0.1,1.5,0.2,2c0.1,0.5,0.3,1,0.7,1.2c0.3,0.3,0.8,0.4,1.4,0.4s1.1-0.1,1.4-0.4
				s0.6-0.7,0.7-1.3s0.2-1.3,0.2-2.1v-1.2h-2.2v-1.7h4.3v8.4h-1.5l-0.2-2c-0.2,0.6-0.6,1.1-1.1,1.6C56.6,56.1,56,56.3,55.1,56.3z"/>
		</g>
	</g>
</g>
<path class="st4" d="M65.8,36.8L65.8,36.8c0-6.9-2.1-12.4-4.6-12.4v0c2.5,0,4.6-5.6,4.6-12.4h0c0,6.9,2.1,12.4,4.6,12.4v0
	C67.9,24.4,65.8,29.9,65.8,36.8z"/>
<path class="st4" d="M31.6,46.9L31.6,46.9c0-3.8-1.1-6.9-2.6-6.9v0c1.4,0,2.6-3.1,2.6-6.9h0c0,3.8,1.1,6.9,2.6,6.9v0
	C32.7,39.9,31.6,43,31.6,46.9z"/>
</svg>
